<?xml version="1.0" encoding="utf-8"?>
<!-- Generator: Adobe Illustrator 24.1.3, SVG Export Plug-In . SVG Version: 6.00 Build 0)  -->
<svg version="1.1" id="Layer_1" xmlns="http://www.w3.org/2000/svg" xmlns:xlink="http://www.w3.org/1999/xlink" x="0px" y="0px"
	 viewBox="0 0 30 30" style="enable-background:new 0 0 30 30;" xml:space="preserve">
<style type="text/css">
	.st0{fill:#F0E740;}
</style>
<g>
	<path class="st0" d="M3.5,7c7.67,0,15.33,0,23,0H3.5z"/>
	<g>
		<path class="st0" d="M3.5,7.63c7.67,0,15.33,0,23,0c0.8,0,0.81-1.25,0-1.25c-6.72,0-13.43,0-20.15,0c-0.95,0-1.9,0-2.85,0
			C2.7,6.38,2.69,7.63,3.5,7.63c6.72,0,13.43,0,20.15,0c0.95,0,1.9,0,2.85,0c0.8,0,0.81-1.25,0-1.25c-7.67,0-15.33,0-23,0
			C2.7,6.38,2.69,7.63,3.5,7.63z"/>
	</g>
</g>
<g>
	<path class="st0" d="M3.5,14c7.67,0,15.33,0,23,0H3.5z"/>
	<g>
		<path class="st0" d="M3.5,14.63c7.67,0,15.33,0,23,0c0.8,0,0.81-1.25,0-1.25c-6.72,0-13.43,0-20.15,0c-0.95,0-1.9,0-2.85,0
			C2.7,13.38,2.69,14.63,3.5,14.63c6.72,0,13.43,0,20.15,0c0.95,0,1.9,0,2.85,0c0.8,0,0.81-1.25,0-1.25c-7.67,0-15.33,0-23,0
			C2.7,13.38,2.69,14.63,3.5,14.63z"/>
	</g>
</g>
<g>
	<path class="st0" d="M3.5,21c7.67,0,15.33,0,23,0H3.5z"/>
	<g>
		<path class="st0" d="M3.5,21.63c7.67,0,15.33,0,23,0c0.8,0,0.81-1.25,0-1.25c-6.72,0-13.43,0-20.15,0c-0.95,0-1.9,0-2.85,0
			C2.7,20.38,2.69,21.63,3.5,21.63c6.72,0,13.43,0,20.15,0c0.95,0,1.9,0,2.85,0c0.8,0,0.81-1.25,0-1.25c-7.67,0-15.33,0-23,0
			C2.7,20.38,2.69,21.63,3.5,21.63z"/>
	</g>
</g>
</svg>
